<svg width="524" height="259" viewBox="0 0 524 259" fill="none" xmlns="http://www.w3.org/2000/svg">
<path d="M206 186.171V152.491H140V125.601L215.72 28.4108H236.28V125.411H256.17V152.491H236.28V186.171H206ZM170.29 125.371H209.39V74.2908L170.29 125.371Z" fill="#050505"/>
<path d="M473.82 186.171V152.491H407.82V125.601L483.53 28.4108H504.1V125.411H524V152.491H504.11V186.171H473.82ZM438.11 125.371H477.21V74.2908L438.11 125.371Z" fill="#050505"/>
<path d="M295.35 38.6608C304.68 33.5608 313.01 35.3408 318.67 35.2608C324.33 35.1808 335.82 27.3508 342.42 28.5308C349.02 29.7108 381.38 45.2908 386.5 52.2908C391.62 59.2908 400.14 77.0208 400.94 80.6008C401.74 84.1808 399.64 104.401 400.62 109.031C401.6 113.661 398.42 121.201 396.44 124.441C394.46 127.681 389.69 139.811 388.51 142.021C387.33 144.231 357 168.201 346.38 169.711C335.76 171.221 331.63 168.211 330.47 167.551C329.31 166.891 332.81 159.341 327.3 157.551C321.79 155.761 319.73 154.861 319.73 154.861C319.73 154.861 318.17 150.231 315.27 149.141C312.37 148.051 308.27 151.141 308.27 151.141C308.27 151.141 307.03 151.831 304.62 150.721C302.21 149.611 298.83 151.101 298.83 151.101C298.01 149.603 296.663 148.463 295.05 147.901C292.24 146.901 288.95 152.841 288.95 152.841C288.95 152.841 270.58 137.481 269.57 133.711C268.56 129.941 268.57 124.931 267.16 120.261C265.75 115.591 262.88 113.401 262.83 105.561C262.78 97.7208 264.45 81.1608 266.51 77.2308C268.57 73.3008 270.37 67.7808 271.66 66.0508C272.95 64.3208 285.7 43.9308 295.35 38.6608Z" fill="#FFC727"/>
<g opacity="0.3">
<path d="M295.35 38.6608C304.68 33.5608 313.01 35.3408 318.67 35.2608C324.33 35.1808 335.82 27.3508 342.42 28.5308C349.02 29.7108 381.38 45.2908 386.5 52.2908C391.62 59.2908 400.14 77.0208 400.94 80.6008C401.74 84.1808 399.64 104.401 400.62 109.031C401.6 113.661 398.42 121.201 396.44 124.441C394.46 127.681 389.69 139.811 388.51 142.021C387.33 144.231 357 168.201 346.38 169.711C335.76 171.221 331.63 168.211 330.47 167.551C329.31 166.891 332.81 159.341 327.3 157.551C321.79 155.761 319.73 154.861 319.73 154.861C319.73 154.861 318.17 150.231 315.27 149.141C312.37 148.051 308.27 151.141 308.27 151.141C308.27 151.141 307.03 151.831 304.62 150.721C302.21 149.611 298.83 151.101 298.83 151.101C298.01 149.603 296.663 148.463 295.05 147.901C292.24 146.901 288.95 152.841 288.95 152.841C288.95 152.841 270.58 137.481 269.57 133.711C268.56 129.941 268.57 124.931 267.16 120.261C265.75 115.591 262.88 113.401 262.83 105.561C262.78 97.7208 264.45 81.1608 266.51 77.2308C268.57 73.3008 270.37 67.7808 271.66 66.0508C272.95 64.3208 285.7 43.9308 295.35 38.6608Z" fill="white"/>
</g>
<path d="M358 139.921C359.54 138.041 363.47 137.731 363.93 139.751C364.39 141.771 363.34 144.101 360.67 144.041C358 143.981 357.4 140.681 358 139.921Z" fill="#FFC727"/>
<path opacity="0.1" d="M360.37 144.011C357.98 143.711 357.43 140.651 358.03 139.921C358.499 139.416 359.069 139.017 359.704 138.75C360.338 138.482 361.022 138.353 361.71 138.371C361.02 138.621 359.36 139.471 359.11 140.501C358.86 141.531 358.78 143.291 360.37 144.011Z" fill="#050505"/>
<path d="M274 99.4108C276.64 94.2408 285.31 96.9708 286.08 101.631C286.85 106.291 282.21 109.631 278.88 109.391C275.55 109.151 271.13 105.071 274 99.4108Z" fill="#FFC727"/>
<path d="M370.11 105.951C365.96 104.651 355.53 107.321 353.41 116.291C352.2 121.411 358.77 132.091 365.5 132.671C372.23 133.251 377.21 126.261 378.71 120.531C380.21 114.801 376.47 107.941 370.11 105.951Z" fill="#FFC727"/>
<path opacity="0.1" d="M367.11 132.661C366.574 132.716 366.035 132.716 365.5 132.661C358.77 132.081 352.2 121.401 353.41 116.281C355.52 107.281 365.96 104.631 370.11 105.941C370.882 106.197 371.626 106.532 372.33 106.941C366.95 107.941 359.56 113.331 358.95 117.171C358.3 121.291 361.16 131.721 367.11 132.661Z" fill="#050505"/>
<path d="M338 38.4108C337.66 41.8408 334 44.1708 331 46.5008C328 48.8308 322 47.8308 317.81 45.8408C313.62 43.8508 311.16 35.6408 311.27 35.0308C314.03 35.0308 316.51 35.2908 318.62 35.2608C322.51 35.2608 329.18 31.4708 335.11 29.5408C336.34 31.8508 338.26 36.0108 338 38.4108Z" fill="#FFC727"/>
<path opacity="0.1" d="M328.7 47.5708C325.52 48.3508 321.14 47.3908 317.85 45.8408C313.64 43.8408 311.2 35.6408 311.31 35.0308C313.51 35.0308 315.53 35.2008 317.31 35.2508C317.83 37.3908 319.24 42.6308 320.81 44.0308C322.84 45.8108 326.59 47.4908 328.7 47.5708Z" fill="#050505"/>
<path d="M371.83 67.5608C374.62 65.5608 379.7 67.5608 380.04 71.4808C380.38 75.4008 375.27 77.6508 371.83 74.9908C371.242 74.5665 370.762 74.0084 370.432 73.3625C370.101 72.7166 369.929 72.0014 369.929 71.2758C369.929 70.5502 370.101 69.8351 370.432 69.1892C370.762 68.5433 371.242 67.9852 371.83 67.5608Z" fill="#FFC727"/>
<path opacity="0.1" d="M372.72 70.2208C372.14 72.3808 372.4 73.9008 374.43 76.0908C373.482 75.9589 372.585 75.5795 371.83 74.9908C371.242 74.5664 370.762 74.0083 370.432 73.3625C370.101 72.7166 369.929 72.0014 369.929 71.2758C369.929 70.5502 370.101 69.8351 370.432 69.1892C370.762 68.5433 371.242 67.9852 371.83 67.5608C372.573 67.0966 373.422 66.8292 374.296 66.7837C375.171 66.7383 376.043 66.9162 376.83 67.3008C376.63 67.2108 373.3 68.0608 372.72 70.2208Z" fill="#050505"/>
<path d="M329.57 158.991C328.949 158.32 328.168 157.818 327.3 157.531C321.78 155.721 319.73 154.841 319.73 154.841C319.73 154.841 318.17 150.211 315.27 149.121C312.37 148.031 308.27 151.121 308.27 151.121C308.94 145.431 311.37 143.121 315.47 140.961C319.57 138.801 326.78 139.781 329 145.331C330.58 149.211 330 155.491 329.57 158.991Z" fill="#FFC727"/>
<path opacity="0.1" d="M323.41 140.421C321.735 140.503 320.097 140.941 318.604 141.705C317.111 142.468 315.797 143.541 314.75 144.851C314.04 146.104 313.595 147.489 313.44 148.921C311.58 149.257 309.826 150.028 308.32 151.171C308.99 145.481 311.42 143.171 315.52 141.011C317.982 139.826 320.8 139.615 323.41 140.421Z" fill="#050505"/>
<path d="M300.26 63.4708C293.01 67.4708 288.1 78.6008 288.37 82.3108C288.64 86.0208 291.11 91.9608 294.31 94.7908C301.51 101.161 315.71 98.2408 319.16 94.7908C322.61 91.3408 326.49 80.7408 325.26 75.5408C323.21 66.8508 307.67 59.4008 300.26 63.4708Z" fill="#FFC727"/>
<path opacity="0.1" d="M310.27 98.2308C304.88 99.0408 298.44 98.4508 294.27 94.7908C291.07 91.9608 288.59 86.0308 288.33 82.3208C288.07 78.6108 292.97 67.4508 300.22 63.4708C302.5 62.2208 305.54 62.0608 308.72 62.6908C304.98 65.4408 298.81 70.5208 297.46 74.9708C295.46 81.4608 296.65 88.2308 299.46 92.1608C301.32 94.6708 306.66 96.9308 310.27 98.2308Z" fill="#050505"/>
<path d="M284.5 110.161C283.133 111.086 281.511 111.562 279.86 111.521C275.97 111.261 270.81 106.521 274.16 99.8808C274.773 98.7328 275.728 97.8046 276.893 97.2256C278.059 96.6465 279.375 96.4456 280.66 96.6508C284.17 96.9608 287.73 99.3408 288.26 102.471C288.473 103.982 288.229 105.521 287.558 106.892C286.888 108.262 285.823 109.401 284.5 110.161Z" fill="#FFC727"/>
<path opacity="0.1" d="M284.5 110.161C283.133 111.086 281.511 111.562 279.86 111.521C275.97 111.261 270.81 106.521 274.16 99.8808C274.773 98.7328 275.728 97.8046 276.893 97.2256C278.059 96.6465 279.375 96.4456 280.66 96.6508C279.15 97.8008 276.77 100.141 276.77 103.421C276.77 108.231 279.77 109.421 281.62 110.071C282.56 110.328 283.547 110.359 284.5 110.161Z" fill="#050505"/>
<path d="M365.61 80.1008C365.26 80.3472 364.834 80.4624 364.408 80.426C363.981 80.3897 363.581 80.2041 363.278 79.9021C362.975 79.6 362.787 79.2007 362.749 78.7743C362.711 78.3479 362.825 77.9218 363.07 77.5708C363.221 77.2885 363.456 77.06 363.743 76.9167C364.029 76.7734 364.353 76.7225 364.67 76.7708C365.092 76.7835 365.5 76.9298 365.834 77.1885C366.168 77.4472 366.412 77.8051 366.53 78.2108C366.584 78.5818 366.525 78.9603 366.361 79.2973C366.196 79.6343 365.935 79.9143 365.61 80.1008Z" fill="#FFC727"/>
<path opacity="0.1" d="M365.61 80.1008C365.26 80.3472 364.834 80.4624 364.408 80.426C363.981 80.3897 363.581 80.2041 363.278 79.9021C362.975 79.6 362.787 79.2007 362.749 78.7743C362.711 78.3479 362.825 77.9218 363.07 77.5708C363.221 77.2885 363.456 77.06 363.743 76.9167C364.029 76.7734 364.353 76.7225 364.67 76.7708C364.387 76.9544 364.149 77.2003 363.976 77.4898C363.803 77.7793 363.698 78.1046 363.67 78.4408C363.638 78.8115 363.741 79.1811 363.96 79.4822C364.178 79.7833 364.498 79.9957 364.86 80.0808C365.104 80.1496 365.362 80.1565 365.61 80.1008Z" fill="#050505"/>
<path d="M284.84 119.531C287.32 118.371 291.48 119.951 290.96 122.231C290.44 124.511 288.26 126.381 285.56 125.031C282.86 123.681 283.83 120.011 284.84 119.531Z" fill="#FFC727"/>
<path opacity="0.1" d="M289.88 124.291C289.351 124.887 288.632 125.283 287.845 125.411C287.058 125.538 286.251 125.39 285.56 124.991C282.87 123.641 283.82 119.991 284.84 119.491C285.598 119.159 286.428 119.032 287.25 119.121C286.554 119.781 286.106 120.66 285.98 121.611C286 123.161 288 124.721 289.88 124.291Z" fill="#050505"/>
<path d="M298.47 193.011V197.291H283.47V175.991H298.18V180.311H288.39V184.451H296.8V188.451H288.39V192.981L298.47 193.011Z" fill="#050505"/>
<path d="M301.48 197.291V175.991H311.08C312.04 175.982 312.989 176.198 313.85 176.621C314.684 177.027 315.434 177.587 316.06 178.271C316.674 178.951 317.165 179.733 317.51 180.581C317.855 181.408 318.035 182.295 318.04 183.191C318.044 183.836 317.96 184.478 317.79 185.101C317.637 185.701 317.409 186.278 317.11 186.821C316.811 187.36 316.438 187.855 316 188.291C315.571 188.72 315.083 189.087 314.55 189.381L319.23 197.301H313.68L309.6 190.431H306.4V197.291H301.48ZM306.4 186.131H310.9C311.198 186.126 311.49 186.048 311.751 185.906C312.013 185.763 312.235 185.559 312.4 185.311C312.841 184.694 313.063 183.948 313.03 183.191C313.068 182.425 312.81 181.673 312.31 181.091C312.12 180.858 311.883 180.668 311.614 180.534C311.345 180.399 311.051 180.323 310.75 180.311H306.4V186.131Z" fill="#050505"/>
<path d="M321.58 197.291V175.991H331.17C332.133 175.982 333.085 176.198 333.95 176.621C334.784 177.027 335.533 177.587 336.16 178.271C336.774 178.951 337.264 179.733 337.61 180.581C337.952 181.409 338.129 182.295 338.13 183.191C338.131 183.834 338.053 184.476 337.9 185.101C337.735 185.698 337.503 186.275 337.21 186.821C336.913 187.356 336.543 187.848 336.11 188.281C335.68 188.71 335.192 189.077 334.66 189.371L339.33 197.291H333.79L329.71 190.421H326.5V197.291H321.58ZM326.5 186.131H331C331.298 186.126 331.59 186.048 331.851 185.906C332.112 185.763 332.335 185.559 332.5 185.311C332.933 184.691 333.151 183.946 333.12 183.191C333.16 182.426 332.906 181.674 332.41 181.091C332.219 180.857 331.98 180.666 331.709 180.532C331.438 180.397 331.142 180.322 330.84 180.311H326.5V186.131Z" fill="#050505"/>
<path d="M351 197.511C349.509 197.53 348.032 197.212 346.68 196.581C345.422 195.993 344.29 195.164 343.35 194.141C342.43 193.126 341.704 191.949 341.21 190.671C340.705 189.398 340.444 188.041 340.44 186.671C340.44 185.282 340.712 183.906 341.24 182.621C342.283 180.037 344.287 177.958 346.83 176.821C348.17 176.221 349.623 175.917 351.09 175.931C352.585 175.913 354.065 176.231 355.42 176.861C356.679 177.458 357.81 178.293 358.75 179.321C359.666 180.342 360.388 181.521 360.88 182.801C361.37 184.077 361.621 185.433 361.62 186.801C361.624 188.189 361.356 189.565 360.83 190.851C360.315 192.126 359.566 193.292 358.62 194.291C357.663 195.292 356.522 196.1 355.26 196.671C353.919 197.259 352.465 197.546 351 197.511ZM345.46 186.711C345.46 187.52 345.578 188.325 345.81 189.101C346.039 189.844 346.401 190.539 346.88 191.151C347.368 191.787 347.999 192.3 348.722 192.647C349.444 192.995 350.239 193.167 351.04 193.151C351.895 193.169 352.741 192.973 353.5 192.581C354.176 192.216 354.766 191.712 355.23 191.101C355.684 190.476 356.023 189.775 356.23 189.031C356.461 188.265 356.579 187.47 356.58 186.671C356.584 185.863 356.459 185.06 356.21 184.291C355.981 183.561 355.615 182.883 355.13 182.291C354.654 181.702 354.057 181.221 353.38 180.881C352.645 180.498 351.829 180.295 351 180.291C350.15 180.27 349.307 180.462 348.55 180.851C347.875 181.207 347.282 181.701 346.81 182.301C346.334 182.915 345.978 183.614 345.76 184.361C345.547 185.125 345.445 185.917 345.46 186.711Z" fill="#050505"/>
<path d="M364.47 197.291V175.991H374.07C375.033 175.982 375.985 176.198 376.85 176.621C377.68 177.028 378.427 177.587 379.05 178.271C379.67 178.948 380.164 179.73 380.51 180.581C380.852 181.409 381.028 182.295 381.03 183.191C381.032 183.835 380.951 184.477 380.79 185.101C380.633 185.701 380.401 186.279 380.1 186.821C379.514 187.9 378.629 188.786 377.55 189.371L382.23 197.291H376.68L372.6 190.421H369.39V197.291H364.47ZM369.39 186.131H373.89C374.187 186.126 374.479 186.048 374.741 185.906C375.002 185.763 375.225 185.559 375.39 185.311C375.83 184.694 376.052 183.948 376.02 183.191C376.057 182.424 375.799 181.673 375.3 181.091C375.11 180.857 374.873 180.667 374.604 180.532C374.335 180.398 374.04 180.322 373.74 180.311H369.39V186.131Z" fill="#050505"/>
<path d="M151.37 23.5308C149.878 23.5499 148.401 23.232 147.05 22.6008C145.79 22.0093 144.659 21.177 143.72 20.1508C142.799 19.1392 142.074 17.9661 141.58 16.6908C141.074 15.4176 140.813 14.0606 140.81 12.6908C140.816 11.3183 141.087 9.96 141.61 8.69081C142.648 6.10169 144.652 4.01805 147.2 2.88081C148.54 2.28398 149.993 1.98379 151.46 2.00081C152.951 1.98171 154.428 2.29962 155.78 2.93081C157.033 3.493 158.164 4.29469 159.11 5.29081C160.028 6.30924 160.751 7.48917 161.24 8.77081C161.736 10.0459 161.991 11.4024 161.99 12.7708C161.987 14.1427 161.719 15.501 161.2 16.7708C160.158 19.3532 158.164 21.4367 155.63 22.5908C154.296 23.2138 152.841 23.5348 151.37 23.5308ZM145.82 12.7308C145.818 13.5378 145.939 14.3404 146.18 15.1108C146.408 15.8569 146.771 16.555 147.25 17.1708C147.721 17.7729 148.318 18.2645 149 18.6108C149.744 18.9813 150.568 19.1665 151.4 19.1508C152.254 19.1709 153.101 18.9748 153.86 18.5808C154.54 18.2156 155.134 17.7073 155.6 17.0908C156.053 16.4657 156.392 15.7648 156.6 15.0208C156.847 14.2613 156.982 13.4695 157 12.6708C156.994 11.8628 156.866 11.0604 156.62 10.2908C156.39 9.56142 156.024 8.88258 155.54 8.29081C155.063 7.702 154.466 7.22135 153.79 6.88081C153.051 6.49642 152.232 6.29413 151.4 6.29081C150.553 6.26792 149.714 6.45699 148.96 6.84081C148.285 7.19746 147.692 7.69138 147.22 8.29081C146.766 8.89053 146.427 9.56848 146.22 10.2908C145.964 11.0793 145.829 11.902 145.82 12.7308Z" fill="#050505"/>
<path d="M172 23.6508C170.775 23.672 169.557 23.4476 168.42 22.9908C167.42 22.5838 166.514 21.9744 165.76 21.2008C165.043 20.4525 164.488 19.5639 164.13 18.5908C163.384 16.5881 163.384 14.3835 164.13 12.3808C164.488 11.4078 165.043 10.5192 165.76 9.77082C166.516 8.99717 167.421 8.38483 168.42 7.97082C170.72 7.07721 173.271 7.07721 175.57 7.97082C176.562 8.38718 177.46 8.99939 178.21 9.77082C178.93 10.5208 179.492 11.4086 179.86 12.3808C180.24 13.3735 180.434 14.4279 180.43 15.4908C180.435 16.5489 180.249 17.5991 179.88 18.5908C179.519 19.5643 178.961 20.4529 178.24 21.2008C177.49 21.9741 176.588 22.5836 175.59 22.9908C174.449 23.4476 173.229 23.672 172 23.6508ZM168.44 15.4908C168.384 16.581 168.741 17.6522 169.44 18.4908C169.756 18.8566 170.15 19.1463 170.593 19.3385C171.037 19.5307 171.517 19.6204 172 19.6008C172.477 19.6059 172.949 19.5033 173.38 19.3008C173.802 19.1009 174.176 18.8148 174.48 18.4608C174.804 18.0741 175.052 17.6296 175.21 17.1508C175.394 16.617 175.486 16.0555 175.48 15.4908C175.533 14.401 175.176 13.3309 174.48 12.4908C174.175 12.1335 173.794 11.8486 173.365 11.6566C172.936 11.4647 172.47 11.3705 172 11.3808C171.526 11.3774 171.056 11.4777 170.624 11.6746C170.192 11.8715 169.809 12.1603 169.5 12.5208C169.174 12.9038 168.923 13.3448 168.76 13.8208C168.559 14.3551 168.451 14.92 168.44 15.4908Z" fill="#050505"/>
<path d="M192.71 23.6508C191.622 23.6785 190.546 23.4198 189.59 22.9008C188.736 22.4064 188.042 21.6776 187.59 20.8008V29.7408H182.79V7.60082H186.96V10.1508C187.506 9.28482 188.254 8.56422 189.14 8.05082C190.089 7.53077 191.159 7.27195 192.24 7.30082C193.251 7.28997 194.252 7.50521 195.17 7.93082C196.049 8.34105 196.835 8.92633 197.48 9.65082C198.143 10.4089 198.658 11.2838 199 12.2308C199.374 13.2558 199.56 14.3398 199.55 15.4308C199.561 16.5414 199.389 17.6463 199.04 18.7008C198.722 19.6447 198.234 20.5225 197.6 21.2908C197.011 22.0139 196.274 22.6035 195.44 23.0208C194.593 23.4433 193.657 23.6592 192.71 23.6508ZM191.09 19.6508C191.588 19.6547 192.08 19.5345 192.52 19.3008C192.948 19.0724 193.329 18.7634 193.64 18.3908C193.969 17.9951 194.221 17.5404 194.38 17.0508C194.55 16.5346 194.634 15.9942 194.63 15.4508C194.637 14.9014 194.542 14.3555 194.35 13.8408C194.172 13.3724 193.907 12.9416 193.57 12.5708C193.235 12.2074 192.826 11.9209 192.37 11.7308C191.889 11.5289 191.372 11.4268 190.85 11.4308C190.174 11.4343 189.513 11.6359 188.95 12.0108C188.344 12.3955 187.859 12.9431 187.55 13.5908V16.8308C187.861 17.6094 188.363 18.2971 189.01 18.8308C189.589 19.3272 190.327 19.6003 191.09 19.6008V19.6508Z" fill="#050505"/>
<path d="M208.16 23.6508C206.801 23.6524 205.45 23.4329 204.16 23.0008C202.94 22.619 201.815 21.9815 200.86 21.1308L202.57 18.1908C203.447 18.8046 204.389 19.3178 205.38 19.7208C206.21 20.0755 207.099 20.2689 208 20.2908C208.502 20.3195 209.001 20.2051 209.44 19.9608C209.61 19.8577 209.747 19.7096 209.837 19.5331C209.927 19.3565 209.966 19.1584 209.95 18.9608C209.947 18.7512 209.885 18.5466 209.772 18.37C209.659 18.1934 209.499 18.0517 209.31 17.9608C208.588 17.6072 207.826 17.3419 207.04 17.1708C205.98 16.8708 205.04 16.5808 204.36 16.3008C203.725 16.0715 203.123 15.7588 202.57 15.3708C202.141 15.0744 201.796 14.6711 201.57 14.2008C201.36 13.7083 201.257 13.1763 201.27 12.6408C201.259 11.9018 201.415 11.1697 201.727 10.4995C202.039 9.82933 202.498 9.23834 203.07 8.77081C203.666 8.29234 204.344 7.92637 205.07 7.69081C205.877 7.42473 206.721 7.29298 207.57 7.30081C208.695 7.29247 209.814 7.4543 210.89 7.78081C212.002 8.14225 213.025 8.73529 213.89 9.52081L212.03 12.4008C211.282 11.865 210.477 11.4123 209.63 11.0508C208.996 10.7866 208.317 10.6442 207.63 10.6308C207.171 10.6146 206.715 10.7216 206.31 10.9408C206.137 11.0417 205.995 11.1884 205.9 11.3649C205.804 11.5413 205.76 11.7406 205.77 11.9408C205.762 12.1466 205.813 12.3504 205.918 12.5278C206.023 12.7052 206.176 12.8486 206.36 12.9408C207.053 13.266 207.781 13.5076 208.53 13.6608C209.492 13.9098 210.44 14.2103 211.37 14.5608C212.038 14.8044 212.667 15.141 213.24 15.5608C213.69 15.895 214.05 16.3346 214.29 16.8408C214.522 17.3804 214.635 17.9637 214.62 18.5508C214.648 19.2686 214.504 19.9827 214.2 20.6334C213.895 21.284 213.439 21.8524 212.87 22.2908C211.501 23.2676 209.839 23.7474 208.16 23.6508Z" fill="#050505"/>
<path d="M216.89 23.3508V18.4608H220.82V23.3508H216.89Z" fill="#050505"/>
<path d="M224.06 23.3508V18.4608H228V23.3508H224.06Z" fill="#050505"/>
<path d="M231.23 23.3508V18.4608H235.16V23.3508H231.23Z" fill="#050505"/>
<path d="M132.222 258.514C195.79 258.514 247.322 250.366 247.322 240.314C247.322 230.263 195.79 222.114 132.222 222.114C68.6541 222.114 17.1221 230.263 17.1221 240.314C17.1221 250.366 68.6541 258.514 132.222 258.514Z" fill="#B8B4B4"/>
<path d="M204.041 107.374C201.571 107.234 189.611 105.974 187.521 104.054C181.821 98.8144 178.521 95.4144 178.031 92.1844C177.571 89.3144 179.831 83.8844 179.881 80.9344C179.931 77.9844 184.941 79.5944 186.661 79.4144C190.221 79.0544 191.011 81.1144 192.881 81.7844C194.181 82.2544 198.611 79.8744 201.741 82.1144C204.871 84.3544 204.241 88.1644 204.241 88.1644C204.241 88.1644 211.531 91.5044 211.661 95.4844C211.801 99.9844 206.821 107.534 204.041 107.374Z" fill="#E8E8E8"/>
<path opacity="0.3" d="M204.041 107.374C201.571 107.234 189.611 105.974 187.521 104.054C181.821 98.8144 178.521 95.4144 178.031 92.1844C177.571 89.3144 179.831 83.8844 179.881 80.9344C179.931 77.9844 184.941 79.5944 186.661 79.4144C190.221 79.0544 191.011 81.1144 192.881 81.7844C194.181 82.2544 198.611 79.8744 201.741 82.1144C204.871 84.3544 204.241 88.1644 204.241 88.1644C204.241 88.1644 211.531 91.5044 211.661 95.4844C211.801 99.9844 206.821 107.534 204.041 107.374Z" fill="#FFC800"/>
<path d="M63.6216 201.204C59.9916 205.444 45.1616 208.364 36.4516 201.534C27.7416 194.704 22.5716 172.004 22.8016 164.354C23.0316 156.704 45.3916 63.0944 51.7516 40.7944C58.1116 18.4944 47.7516 7.40439 40.4616 2.13439C33.1716 -3.13561 17.7516 2.6044 14.6316 5.9344C11.5116 9.2644 10.1016 18.0944 10.1016 18.0944C10.1016 18.0944 12.6816 10.0944 17.3916 7.44441C22.1016 4.79441 32.4516 2.91441 37.8716 5.97441C43.2916 9.03441 51.2316 22.6644 46.7816 34.5744C42.3316 46.4844 15.3016 154.524 14.6316 164.624C13.8616 176.754 20.6916 198.124 31.0416 207.354C41.3916 216.584 59.1616 215.714 61.0416 216.354C62.9216 216.994 63.2016 219.734 63.2016 219.734L63.6216 201.204Z" fill="#E8E8E8"/>
<path opacity="0.1" d="M63.6216 201.204C59.9916 205.444 45.1616 208.364 36.4516 201.534C27.7416 194.704 22.5716 172.004 22.8016 164.354C23.0316 156.704 45.3916 63.0944 51.7516 40.7944C58.1116 18.4944 47.7516 7.40439 40.4616 2.13439C33.1716 -3.13561 17.7516 2.6044 14.6316 5.9344C11.5116 9.2644 10.1016 18.0944 10.1016 18.0944C10.1016 18.0944 12.6816 10.0944 17.3916 7.44441C22.1016 4.79441 32.4516 2.91441 37.8716 5.97441C43.2916 9.03441 51.2316 22.6644 46.7816 34.5744C42.3316 46.4844 15.3016 154.524 14.6316 164.624C13.8616 176.754 20.6916 198.124 31.0416 207.354C41.3916 216.584 59.1616 215.714 61.0416 216.354C62.9216 216.994 63.2016 219.734 63.2016 219.734L63.6216 201.204Z" fill="black"/>
<g opacity="0.2">
<path d="M58.1218 205.554C57.5462 209.011 57.4453 212.53 57.8218 216.014H57.4218C57.1772 214.323 57.0768 212.613 57.1218 210.904C57.1679 209.093 57.3754 207.289 57.7418 205.514C57.8218 205.144 57.9018 204.774 57.9918 204.404L58.3618 204.284C58.3018 204.684 58.1918 205.094 58.1218 205.554Z" fill="black"/>
<path d="M45.141 205.214L45.021 205.904C44.7253 207.672 44.5349 209.455 44.451 211.244C44.451 210.344 44.381 209.444 44.451 208.544C44.521 207.644 44.551 206.744 44.681 205.844L44.771 205.144L45.141 205.214Z" fill="black"/>
<path d="M47.1518 214.674C47.1518 214.864 47.1518 215.044 47.1518 215.234C47.1518 215.044 47.0918 214.854 47.0718 214.664C46.9618 213.964 46.8618 213.264 46.8018 212.554C46.8018 211.654 46.6818 210.754 46.7118 209.844C46.7175 208.384 46.8378 206.926 47.0718 205.484H47.5618C47.3098 206.919 47.1528 208.369 47.0918 209.824C47.0153 211.441 47.0353 213.06 47.1518 214.674Z" fill="black"/>
<path d="M51.0411 212.634C51.0411 213.541 51.0411 214.451 51.0411 215.364L50.5811 215.294C50.5811 214.394 50.5811 213.504 50.5811 212.614C50.6643 210.811 50.9665 209.025 51.4811 207.294C51.1854 209.059 51.0382 210.845 51.0411 212.634Z" fill="black"/>
<path d="M41.0014 204.094C40.8214 204.934 40.6614 205.784 40.5514 206.634C40.2849 208.402 40.1478 210.187 40.1414 211.974C40.1414 212.214 40.1414 212.444 40.1414 212.684L39.7914 212.554C39.7914 212.364 39.7914 212.164 39.7914 211.974C39.7311 210.166 39.8315 208.355 40.0914 206.564C40.2194 205.676 40.3929 204.795 40.6114 203.924L41.0014 204.094Z" fill="black"/>
<path d="M30.8716 194.384C30.7449 194.644 30.6249 194.904 30.5116 195.164C29.2466 197.948 28.3168 200.872 27.7416 203.874L27.6016 203.704C27.6016 203.374 27.6816 203.044 27.7316 202.704C27.8916 201.824 28.0316 200.924 28.2716 200.054C28.719 198.3 29.3145 196.588 30.0516 194.934C30.2216 194.564 30.4016 194.194 30.5816 193.834L30.8716 194.384Z" fill="black"/>
<path d="M32.301 196.824C31.991 197.594 31.721 198.374 31.481 199.164C30.9579 200.862 30.5634 202.597 30.301 204.354C30.181 205.014 30.081 205.664 30.011 206.354C29.9192 206.266 29.8324 206.172 29.751 206.074C29.7774 205.489 29.8342 204.904 29.921 204.324C30.1561 202.527 30.5476 200.754 31.091 199.024C31.381 198.124 31.701 197.234 32.091 196.364C32.121 196.504 32.221 196.664 32.301 196.824Z" fill="black"/>
<path d="M34.9712 202.334C34.4401 204.049 34.0554 205.805 33.8212 207.584C33.7412 208.174 33.6712 208.764 33.6212 209.354L33.2012 209.094C33.2612 208.584 33.3412 208.094 33.4412 207.554C33.7408 205.76 34.2544 204.007 34.9712 202.334Z" fill="black"/>
<path d="M29.0312 190.624C28.383 191.502 27.7821 192.413 27.2312 193.354C26.3114 194.886 25.48 196.468 24.7412 198.094C25.0412 197.254 25.3312 196.394 25.7412 195.564C26.1512 194.734 26.4912 193.924 26.9412 193.144C27.5081 192.099 28.1498 191.097 28.8612 190.144C28.8812 190.294 28.9512 190.464 29.0312 190.624Z" fill="black"/>
<path d="M24.4113 176.364C24.0413 176.694 23.6713 177.024 23.3113 177.364C22.0098 178.594 20.7747 179.893 19.6113 181.254C20.1413 180.534 20.6113 179.784 21.2313 179.094C21.8513 178.404 22.4013 177.714 23.0513 177.094C23.4513 176.674 23.8713 176.274 24.3013 175.904C24.3013 176.094 24.3813 176.204 24.4113 176.364Z" fill="black"/>
<path d="M25.0816 179.094C24.1912 179.943 23.353 180.845 22.5716 181.794C21.4175 183.165 20.3424 184.601 19.3516 186.094C19.7916 185.304 20.2116 184.504 20.7016 183.754C21.1916 183.004 21.7016 182.244 22.2716 181.544C23.0854 180.479 23.9779 179.476 24.9416 178.544C24.9916 178.734 25.0316 178.914 25.0816 179.094Z" fill="black"/>
<path d="M26.4112 183.644C25.5612 184.502 24.7599 185.407 24.0112 186.354C22.8979 187.744 21.8949 189.219 21.0112 190.764C20.8412 191.044 20.6812 191.324 20.5212 191.604L20.2812 191.044C20.3713 190.864 20.4812 190.684 20.5812 190.504C21.4949 188.947 22.5422 187.471 23.7113 186.094C24.5249 185.147 25.4073 184.262 26.3512 183.444L26.4112 183.644Z" fill="black"/>
<path d="M23.141 169.414C21.4083 169.484 19.6834 169.684 17.981 170.014C16.911 170.204 15.841 170.434 14.791 170.724C14.791 170.574 14.791 170.424 14.791 170.274C15.791 169.974 16.871 169.734 17.931 169.524C19.646 169.203 21.3862 169.036 23.131 169.024C23.111 169.154 23.121 169.284 23.141 169.414Z" fill="black"/>
<path d="M24.1613 156.214C24.1613 156.374 24.0913 156.534 24.0613 156.694C22.7922 156.624 21.5203 156.624 20.2513 156.694C18.8047 156.743 17.3622 156.876 15.9313 157.094C15.9266 157.058 15.9266 157.021 15.9313 156.984C16.4613 156.854 16.9813 156.734 17.5213 156.644C18.4113 156.514 19.3113 156.364 20.2113 156.304C21.5243 156.184 22.8441 156.153 24.1613 156.214Z" fill="black"/>
<path d="M23.7016 158.564L23.6116 159.034C23.1216 159.034 22.6116 159.034 22.1416 159.034C20.3553 159.059 18.5735 159.219 16.8116 159.514C16.3316 159.584 15.8616 159.664 15.3916 159.754C15.3916 159.644 15.3916 159.534 15.4616 159.424C15.8816 159.314 16.3116 159.214 16.7416 159.134C18.5176 158.779 20.321 158.579 22.1316 158.534C22.6516 158.534 23.1816 158.544 23.7016 158.564Z" fill="black"/>
<path d="M20.2414 163.344C18.4516 163.395 16.6689 163.592 14.9114 163.934L14.6914 163.984C14.6914 163.864 14.6914 163.724 14.6914 163.584H14.7914C16.5918 163.286 18.4217 163.205 20.2414 163.344Z" fill="black"/>
<path d="M24.9813 152.214C24.9813 152.334 24.9313 152.444 24.9113 152.554C24.6013 152.554 24.2813 152.484 23.9713 152.464C22.1904 152.334 20.4023 152.334 18.6213 152.464C18.0313 152.464 17.4513 152.544 16.8613 152.614C16.8613 152.444 16.9413 152.284 16.9713 152.124C17.5113 152.064 18.0513 152.014 18.5913 151.974C20.3986 151.861 22.2123 151.908 24.0113 152.114L24.9813 152.214Z" fill="black"/>
<path d="M27.6916 139.714C27.6916 139.874 27.6216 140.044 27.5816 140.204C25.8992 139.828 24.1911 139.577 22.4716 139.454C21.6016 139.374 20.7216 139.334 19.8516 139.334L19.9116 139.084C20.7716 139.084 21.6316 139.014 22.5016 139.084C24.2461 139.149 25.9822 139.36 27.6916 139.714Z" fill="black"/>
<path d="M27.1812 142.024C27.1812 142.174 27.1112 142.324 27.0812 142.464C26.0893 142.274 25.0879 142.137 24.0812 142.054C22.4876 141.879 20.8835 141.819 19.2812 141.874C19.2812 141.734 19.3512 141.594 19.3812 141.454C20.9649 141.373 22.5524 141.406 24.1312 141.554C25.1555 141.657 26.1736 141.814 27.1812 142.024Z" fill="black"/>
<path d="M21.6611 146.094C20.5543 145.99 19.4424 145.949 18.3311 145.974C18.3497 145.88 18.373 145.787 18.4011 145.694C19.4969 145.737 20.5874 145.871 21.6611 146.094Z" fill="black"/>
<path d="M30.6816 126.514C30.6816 126.634 30.6816 126.744 30.6016 126.864C28.9816 126.534 27.3316 126.364 25.6816 126.184C26.5816 126.184 27.4816 126.184 28.3816 126.254C29.2816 126.324 29.9216 126.384 30.6816 126.514Z" fill="black"/>
<path d="M30.1511 128.824C30.1511 128.984 30.0811 129.134 30.0411 129.284C29.0411 129.104 28.0411 128.984 26.9711 128.904C25.4284 128.768 23.8791 128.721 22.3311 128.764C22.3355 128.738 22.3355 128.711 22.3311 128.684C22.9711 128.614 23.6211 128.544 24.2711 128.514C25.1711 128.514 26.0711 128.454 26.9811 128.514C28.0428 128.557 29.1013 128.66 30.1511 128.824Z" fill="black"/>
<path d="M29.3809 133.434L29.1109 133.374C27.4642 133.025 25.7922 132.808 24.1109 132.724C23.2309 132.724 22.3509 132.654 21.4609 132.664C21.4609 132.514 21.5309 132.364 21.5709 132.214C22.4309 132.214 23.2909 132.264 24.1409 132.344C25.8394 132.492 27.5162 132.828 29.1409 133.344L29.3809 133.434Z" fill="black"/>
<path d="M31.681 122.204C31.681 122.364 31.601 122.524 31.571 122.674C31.191 122.584 30.811 122.514 30.431 122.454C28.6781 122.125 26.9033 121.924 25.121 121.854C24.751 121.854 24.371 121.854 24.001 121.854C24.001 121.744 24.001 121.624 24.081 121.514H25.081C26.8884 121.522 28.6918 121.686 30.471 122.004C30.911 122.034 31.301 122.094 31.681 122.204Z" fill="black"/>
<path d="M35.5114 105.834C35.5114 105.934 35.5114 106.034 35.4414 106.134C34.2214 105.914 32.9714 105.764 31.7314 105.614C32.6014 105.614 33.4714 105.614 34.3514 105.704L35.5114 105.834Z" fill="black"/>
<path d="M34.051 112.024C34.051 112.164 33.981 112.304 33.951 112.434L33.061 112.244C31.3073 111.883 29.5344 111.623 27.751 111.464C28.641 111.464 29.551 111.464 30.451 111.534C31.351 111.604 32.251 111.694 33.131 111.864L34.051 112.024Z" fill="black"/>
<path d="M38.3013 94.0244C38.3013 94.1844 38.2213 94.3344 38.1913 94.4844C36.8539 94.0492 35.4914 93.6952 34.1113 93.4244C33.1113 93.2044 32.1113 93.0444 31.1113 92.9244L31.1713 92.7044H31.5213C32.4213 92.7944 33.3213 92.8644 34.2113 93.0244C35.598 93.2536 36.9653 93.5879 38.3013 94.0244Z" fill="black"/>
<path d="M37.2416 98.5344C37.2416 98.6844 37.1716 98.8344 37.1316 98.9844C36.4316 98.7744 35.7116 98.5944 34.9916 98.4444C33.3261 98.0579 31.6352 97.7906 29.9316 97.6444L30.0216 97.2544C31.7316 97.3513 33.4307 97.5887 35.1016 97.9644C35.8216 98.0944 36.5316 98.3144 37.2416 98.5344Z" fill="black"/>
<path d="M41.3012 76.2844C39.6202 75.6661 37.891 75.1879 36.1312 74.8544L35.7012 74.7744C35.7012 74.6444 35.7712 74.5144 35.8012 74.3844L36.2112 74.4744C37.9717 74.8805 39.6796 75.4878 41.3012 76.2844Z" fill="black"/>
<path d="M39.3016 90.0944L39.2116 90.4444L38.7716 90.2944C37.0773 89.7246 35.3424 89.2833 33.5816 88.9744C33.1216 88.8844 32.6516 88.8044 32.1816 88.7444L32.3016 88.2844L33.6716 88.4844C35.4546 88.8113 37.2049 89.2965 38.9016 89.9344L39.3016 90.0944Z" fill="black"/>
<path d="M52.7815 36.5644C52.7856 36.6076 52.7856 36.6512 52.7815 36.6944C51.5165 36.0881 50.2138 35.5637 48.8815 35.1244C48.2015 34.8944 47.5015 34.6844 46.8115 34.4944C46.8704 34.3543 46.9205 34.2107 46.9615 34.0644C47.6515 34.2744 48.3415 34.5044 48.9615 34.7644C50.2828 35.2568 51.5606 35.8589 52.7815 36.5644Z" fill="black"/>
<path d="M50.4219 40.2044C48.7974 39.5834 47.1253 39.0951 45.4219 38.7444C45.4219 38.6244 45.5019 38.5144 45.5319 38.3944C47.2252 38.8104 48.8658 39.4177 50.4219 40.2044Z" fill="black"/>
<path d="M50.9717 14.5244C49.6217 14.7144 48.2717 14.9944 46.9717 15.2744C47.8317 15.0144 48.6917 14.7244 49.5717 14.5144L50.8817 14.2244C50.8817 14.3244 50.9317 14.4244 50.9717 14.5244Z" fill="black"/>
<path d="M52.0118 17.0944C51.4318 17.0944 50.8518 17.1844 50.2818 17.2544C48.9719 17.3885 47.6701 17.5921 46.3818 17.8644C46.3859 17.8212 46.3859 17.7776 46.3818 17.7344C46.7918 17.6044 47.2118 17.4844 47.6218 17.3844C48.5018 17.1944 49.3818 16.9844 50.2818 16.8744C50.8218 16.7844 51.3718 16.7144 51.9118 16.6744C51.9537 16.8122 51.9871 16.9525 52.0118 17.0944Z" fill="black"/>
<path d="M53.6812 29.5244C53.6812 29.6244 53.6812 29.7244 53.6812 29.8344C52.4512 29.5444 51.2012 29.3244 49.9512 29.1044C50.8412 29.1744 51.7512 29.2244 52.6412 29.3544L53.6812 29.5244Z" fill="black"/>
<path d="M51.4117 21.6444C50.1165 21.659 48.8237 21.7593 47.5417 21.9444C47.5417 21.8344 47.5417 21.7444 47.4717 21.6444C48.782 21.5194 50.1013 21.5194 51.4117 21.6444Z" fill="black"/>
<path d="M47.5014 8.8244C46.5014 9.2944 45.5614 9.8244 44.6414 10.3744C44.1114 10.6744 43.6414 10.9944 43.1014 11.3744L42.9414 11.1344C43.4314 10.7644 43.9414 10.4044 44.4414 10.0844C45.3257 9.49479 46.2477 8.96365 47.2014 8.4944L47.5014 8.8244Z" fill="black"/>
<path d="M42.1415 4.91441C41.2164 5.58874 40.3315 6.31665 39.4915 7.09441L39.2715 6.9044C40.1696 6.16041 41.1298 5.49465 42.1415 4.91441Z" fill="black"/>
<path d="M30.8814 0.0944061C30.3114 1.16441 29.8114 2.25441 29.3514 3.36441C29.2014 3.72441 29.0614 4.08441 28.9214 4.45441H28.4414C28.6214 4.02441 28.8014 3.6044 28.9914 3.1844C29.4811 2.11961 30.039 1.08748 30.6614 0.0944061H30.8814Z" fill="black"/>
<path d="M27.051 1.4044C26.4958 2.49885 26.0114 3.62785 25.601 4.78441L25.251 4.84441C25.7426 3.6442 26.3452 2.49253 27.051 1.4044Z" fill="black"/>
<path d="M23.4316 1.4944C23.3316 2.4944 23.2716 3.49441 23.2116 4.56441C23.2116 3.66441 23.1216 2.76441 23.1516 1.86441C23.1516 1.76441 23.1516 1.6744 23.1516 1.5744L23.4316 1.4944Z" fill="black"/>
<path d="M20.6815 6.00441L20.3015 6.09441C20.1428 4.9674 20.0494 3.83219 20.0215 2.69441L20.5015 2.4944C20.4949 3.66687 20.555 4.83877 20.6815 6.00441Z" fill="black"/>
<path d="M18.2313 4.5444C18.1513 5.3744 18.1113 6.2144 18.1113 7.0444L17.8613 7.16441C17.9243 6.28361 18.0479 5.40819 18.2313 4.5444Z" fill="black"/>
<path d="M41.5113 2.92441C40.4704 3.62901 39.4689 4.39015 38.5113 5.20441L37.7313 5.8844C37.5999 5.80455 37.4629 5.73437 37.3213 5.67441C37.6313 5.41441 37.9413 5.1544 38.2613 4.9044C39.2384 4.13741 40.2676 3.43907 41.3413 2.81441L41.5113 2.92441Z" fill="black"/>
<path d="M45.8414 6.8744C44.8414 7.5144 43.9314 8.2144 42.9814 8.8744C43.6514 8.2844 44.3114 7.6644 44.9814 7.1044L45.6014 6.6344L45.8414 6.8744Z" fill="black"/>
<path d="M41.7812 79.7944L41.6612 80.2744L41.3612 80.1644C39.6805 79.5509 37.9555 79.0661 36.2012 78.7144C35.7312 78.6044 35.2612 78.5144 34.7812 78.4344C34.7812 78.3344 34.7812 78.2444 34.8512 78.1444C35.3312 78.1944 35.8512 78.2544 36.2812 78.3444C38.0642 78.6397 39.8176 79.0915 41.5212 79.6944L41.7812 79.7944Z" fill="black"/>
<path d="M44.6917 68.0044C44.6871 68.0743 44.6871 68.1445 44.6917 68.2144L42.4717 67.5744C43.1717 67.7144 43.9317 67.8344 44.6917 68.0044Z" fill="black"/>
<path d="M43.5709 72.4844L43.4809 72.8944L42.4809 72.6144C40.7436 72.1863 38.9844 71.8524 37.2109 71.6144C38.1009 71.6744 39.0109 71.7144 39.9009 71.8244C40.7909 71.9344 41.6909 72.0744 42.5709 72.2944C42.8809 72.3144 43.2309 72.3944 43.5709 72.4844Z" fill="black"/>
<path d="M49.3518 49.6744L49.2318 50.1244C48.6718 49.9644 48.1118 49.8244 47.5518 49.7044C45.9079 49.3065 44.2366 49.0324 42.5518 48.8844C42.5518 48.7444 42.6218 48.6144 42.6618 48.4844C44.3448 48.5979 46.0165 48.842 47.6618 49.2144C48.2318 49.3544 48.7918 49.5044 49.3518 49.6744Z" fill="black"/>
<path d="M45.8018 63.5544L45.6818 64.0144C44.6702 63.6928 43.6421 63.4257 42.6018 63.2144C41.3748 62.9316 40.1328 62.7179 38.8818 62.5744C38.8864 62.5245 38.8864 62.4743 38.8818 62.4244C39.2418 62.4244 39.5918 62.4244 39.9518 62.4744C40.8418 62.5744 41.7418 62.6544 42.6318 62.8344C43.7026 63.0075 44.7614 63.248 45.8018 63.5544Z" fill="black"/>
<path d="M48.3014 53.6744C48.3045 53.7177 48.3045 53.7611 48.3014 53.8044L46.9814 53.4144L48.3014 53.6744Z" fill="black"/>
<path d="M49.4418 43.6444C47.7936 43.0732 46.1013 42.6384 44.3818 42.3444C44.3818 42.2244 44.4418 42.1044 44.4818 41.9844C46.1934 42.3455 47.8577 42.9025 49.4418 43.6444Z" fill="black"/>
<path d="M33.0613 116.234C33.0506 116.302 33.0338 116.369 33.0113 116.434C31.9291 116.128 30.8307 115.881 29.7213 115.694C28.3619 115.446 26.9898 115.273 25.6113 115.174C25.6113 115.024 25.6813 114.864 25.7213 114.714C27.0904 114.819 28.4504 115.02 29.7913 115.314C30.8996 115.552 31.9917 115.859 33.0613 116.234Z" fill="black"/>
</g>
<path d="M98.3017 244.094C101.196 243.699 104.128 243.658 107.032 243.974C110.302 244.273 113.495 245.146 116.462 246.554C117.332 246.974 118.092 245.684 117.222 245.264C111.191 242.469 104.459 241.556 97.9017 242.644C96.9517 242.794 97.3617 244.244 98.3017 244.094Z" fill="#263238"/>
<path d="M95.4316 244.424C98.5848 244.732 101.619 245.788 104.282 247.504C107.116 249.185 109.601 251.396 111.602 254.014C112.152 254.794 113.452 254.014 112.892 253.254C110.766 250.419 108.094 248.038 105.032 246.254C102.142 244.403 98.8493 243.275 95.4316 242.964C94.4316 242.914 94.4316 244.414 95.4316 244.464V244.424Z" fill="#263238"/>
<path d="M161.702 228.094C164.593 227.699 167.521 227.658 170.422 227.974C173.695 228.279 176.889 229.152 179.862 230.554C180.722 230.974 181.482 229.684 180.612 229.264C174.581 226.485 167.853 225.582 161.302 226.674C160.352 226.834 160.752 228.274 161.702 228.124V228.094Z" fill="#263238"/>
<path d="M158.782 228.414C161.937 228.72 164.972 229.78 167.632 231.504C170.469 233.179 172.954 235.386 174.952 238.004C175.502 238.784 176.802 238.004 176.242 237.244C174.114 234.411 171.442 232.031 168.382 230.244C165.491 228.397 162.199 227.269 158.782 226.954C157.782 226.904 157.782 228.404 158.782 228.454V228.414Z" fill="#263238"/>
<path d="M121.052 43.0044C121.052 43.0044 97.6919 42.5644 80.8719 28.8144C66.9619 17.4244 61.8719 11.8144 58.8119 14.6144C55.7519 17.4144 60.2419 63.3144 96.8119 73.6144C109.262 77.1044 121.052 54.6144 121.052 54.6144V43.0044Z" fill="#E8E8E8"/>
<path opacity="0.1" d="M121.052 43.0044C121.052 43.0044 97.6919 42.5644 80.8719 28.8144C66.9619 17.4244 61.8719 11.8144 58.8119 14.6144C55.7519 17.4144 60.2419 63.3144 96.8119 73.6144C109.262 77.1044 121.052 54.6144 121.052 54.6144V43.0044Z" fill="black"/>
<path opacity="0.1" d="M121.052 43.0044V54.5844C121.052 54.5844 109.302 77.0944 96.812 73.5844C87.7506 71.0564 79.64 65.9034 73.502 58.7744C82.242 53.0644 95.412 44.5044 102.812 39.9044C108.746 41.6627 114.87 42.7034 121.052 43.0044Z" fill="black"/>
<path d="M94.642 122.234C94.642 122.234 80.382 95.4144 81.362 82.3144C82.342 69.2144 96.302 47.0944 107.902 41.5344C119.502 35.9744 173.572 43.9144 191.432 62.3344C195.302 66.3344 191.622 73.3844 189.632 76.9944C187.052 81.6644 178.032 92.1844 170.212 95.2344C170.212 95.2344 171.612 110.644 155.212 119.004C155.212 119.004 160.782 145.204 165.862 159.454C170.942 173.704 183.222 197.454 175.682 214.654C168.142 231.854 149.172 230.544 136.682 232.344C124.192 234.144 103.302 246.264 84.802 243.644C66.302 241.024 58.952 220.484 64.162 198.094C69.902 173.544 79.572 143.694 94.642 122.234Z" fill="#E8E8E8"/>
<path d="M98.4119 65.2844C98.4119 65.2844 91.4119 64.6244 77.8819 59.1644C64.3519 53.7044 41.9819 39.3244 20.2319 50.8644C-4.88813 64.1844 -13.2781 124.574 34.6419 143.244C75.9819 159.344 105.402 98.2444 105.402 98.2444L98.4119 65.2844Z" fill="#E8E8E8"/>
<path opacity="0.1" d="M105.392 98.2644C105.392 98.2644 75.9822 159.344 34.6422 143.264C23.8422 139.064 15.9022 132.734 10.3722 125.264C5.32364 116.663 2.27821 107.035 1.46219 97.0944C0.632192 85.2444 2.46219 68.0944 17.8322 58.6044C33.2022 49.1144 52.8822 58.0944 68.3022 66.4244C83.7222 74.7544 97.4622 75.4244 100.952 77.1644C108.532 84.6144 105.392 98.2644 105.392 98.2644Z" fill="black"/>
<path d="M68.3018 54.8744L75.7418 57.7944C78.2318 58.7444 80.7418 59.7244 83.2018 60.6344C85.6618 61.5444 88.2018 62.4444 90.7218 63.2544C91.9818 63.6844 93.2518 64.0344 94.5418 64.3844C95.1818 64.5444 95.8218 64.7244 96.4718 64.8744C97.1218 65.0244 97.7718 65.1344 98.4718 65.2844C95.793 65.1405 93.1377 64.7079 90.5518 63.9944C87.9556 63.33 85.3984 62.5221 82.8918 61.5744C80.3818 60.6344 77.8918 59.5744 75.4818 58.4944C73.0718 57.4144 70.5918 56.2044 68.3018 54.8744Z" fill="#263238"/>
<path d="M91.3018 120.144L93.1018 117.414L94.9218 114.714L98.5318 109.304C99.7318 107.494 100.892 105.674 102.062 103.844C102.632 102.924 103.222 102.014 103.752 101.064C104.282 100.114 104.842 99.1944 105.422 98.2544C104.672 100.317 103.773 102.322 102.732 104.254C101.732 106.184 100.552 108.044 99.3618 109.874C98.1718 111.704 96.8918 113.474 95.5418 115.184C94.2151 116.91 92.7998 118.565 91.3018 120.144Z" fill="#263238"/>
<path d="M92.3516 64.0944C92.7093 63.8538 93.1048 63.6747 93.5216 63.5644C94.7583 63.1908 96.0817 63.2188 97.3016 63.6444C96.8716 63.6944 96.4616 63.6944 96.0516 63.7344L94.8216 63.8244C94.0016 63.8444 93.1916 63.9444 92.3516 64.0944Z" fill="#263238"/>
<path d="M102.362 104.094C102.929 103.412 103.544 102.77 104.202 102.174C104.842 101.574 105.452 101.024 106.112 100.364C105.925 101.284 105.432 102.112 104.712 102.714C104.052 103.358 103.246 103.831 102.362 104.094Z" fill="#263238"/>
<path d="M102.362 86.5144L95.1418 86.2544C92.7318 86.1744 90.3218 86.0944 87.9218 86.0644C83.1118 85.9944 78.2918 85.9144 73.5118 86.2744C68.7318 86.6344 64.2318 88.3244 59.8418 90.2044C57.6418 91.1444 55.4818 92.2044 53.3618 93.3344C51.2418 94.4644 49.1218 95.6244 47.0518 96.8544C50.9863 94.0457 55.1588 91.5863 59.5218 89.5044C63.8818 87.3008 68.5921 85.8728 73.4418 85.2844C78.2717 85.0294 83.1118 85.0294 87.9418 85.2844C92.7618 85.5444 97.5718 85.9244 102.362 86.5144Z" fill="#263238"/>
<path d="M98.4118 88.2644C95.4718 88.8344 92.5418 89.4144 89.6318 90.0644C86.7218 90.7144 83.8318 91.4344 81.0118 92.3444C79.6077 92.7855 78.2346 93.32 76.9018 93.9444C75.5785 94.5851 74.305 95.3238 73.0918 96.1544C71.8688 96.9908 70.712 97.9202 69.6318 98.9344C68.5464 99.9392 67.5432 101.029 66.6318 102.194C68.2069 99.6255 70.2407 97.368 72.6318 95.5344C73.839 94.6068 75.1276 93.7901 76.4818 93.0944C77.8472 92.4303 79.2573 91.8622 80.7018 91.3944C83.5756 90.4941 86.5096 89.7991 89.4818 89.3144C92.4361 88.7947 95.4176 88.4441 98.4118 88.2644Z" fill="#263238"/>
<path d="M178.512 101.644C178.29 97.2602 179.548 92.9286 182.082 89.3444C182.662 88.5644 181.352 87.8144 180.792 88.5844C179.398 90.5173 178.381 92.6952 177.792 95.0044C177.208 97.1676 176.945 99.4048 177.012 101.644C177.072 102.644 178.572 102.644 178.512 101.644Z" fill="#263238"/>
<path d="M179.732 102.694C180.244 100.614 181.276 98.697 182.732 97.1244C184.393 95.2012 186.436 93.6448 188.732 92.5544C189.602 92.1544 188.842 90.8644 187.972 91.2544C187.257 91.6001 186.568 91.9978 185.912 92.4444C184.302 93.5001 182.842 94.7682 181.572 96.2144C179.991 97.9363 178.867 100.027 178.302 102.294C178.122 103.244 179.562 103.644 179.742 102.694H179.732Z" fill="#263238"/>
<path d="M180.302 103.984C181.209 102.389 182.493 101.04 184.042 100.054C185.977 98.6679 188.273 97.8725 190.652 97.7644C190.85 97.7644 191.041 97.6854 191.182 97.5447C191.323 97.4041 191.402 97.2133 191.402 97.0144C191.402 96.8155 191.323 96.6247 191.182 96.4841C191.041 96.3434 190.85 96.2644 190.652 96.2644C188.005 96.3661 185.444 97.2346 183.282 98.7644C181.514 99.8813 180.045 101.412 179.002 103.224C178.572 104.084 179.862 104.844 180.302 103.984Z" fill="#263238"/>
<path d="M134.232 126.574C134.232 126.574 159.742 130.804 176.702 101.134C176.702 101.134 180.372 99.0344 181.262 103.034C181.262 103.034 183.192 132.304 165.892 145.484C148.332 158.854 127.812 154.734 127.812 154.734C127.812 154.734 114.812 136.994 134.232 126.574Z" fill="#E8E8E8"/>
<path d="M155.782 122.234C153.528 123.987 150.932 125.248 148.162 125.934C146.787 126.293 145.386 126.544 143.972 126.684C142.558 126.814 141.135 126.814 139.722 126.684L143.852 125.884C145.212 125.614 146.562 125.284 147.852 124.934C149.142 124.584 150.512 124.174 151.852 123.734C153.192 123.294 154.492 122.824 155.782 122.234Z" fill="#263238"/>
<path d="M127.812 154.734C129.47 154.952 131.139 155.075 132.812 155.104C134.492 155.104 136.152 155.104 137.812 155.014C141.135 154.812 144.435 154.317 147.672 153.534C150.912 152.779 154.07 151.707 157.102 150.334C160.153 148.961 163.086 147.339 165.872 145.484C165.212 146.004 164.552 146.484 163.872 147.034C163.232 147.564 162.565 148.058 161.872 148.514L159.712 149.844C159.002 150.304 158.212 150.634 157.472 151.034C155.961 151.797 154.405 152.465 152.812 153.034C152.022 153.334 151.202 153.544 150.392 153.804L149.182 154.184L147.942 154.474C144.647 155.275 141.272 155.701 137.882 155.744C134.495 155.852 131.109 155.512 127.812 154.734Z" fill="#263238"/>
<path d="M130.302 156.284C130.784 156.272 131.265 156.229 131.742 156.154C132.222 156.084 132.742 156.034 133.152 155.954C134.092 155.824 134.992 155.664 135.982 155.434C135.253 156.141 134.31 156.584 133.302 156.694C132.8 156.754 132.293 156.754 131.792 156.694C131.269 156.685 130.756 156.544 130.302 156.284Z" fill="#263238"/>
<path d="M149.582 78.3644C149.412 78.2544 149.432 78.8144 149.582 78.9544C153.452 82.4144 157.202 87.0144 154.692 91.5044C154.669 91.5376 154.661 91.5783 154.669 91.6177C154.676 91.6571 154.699 91.6919 154.732 91.7144C154.765 91.7369 154.806 91.7454 154.845 91.7379C154.885 91.7304 154.919 91.7075 154.942 91.6744C158.932 87.0944 153.892 81.0344 149.582 78.3644Z" fill="#263238"/>
<path d="M142.782 78.5344C135.832 84.3544 146.332 95.8644 152.782 90.4644C159.232 85.0644 148.612 73.6544 142.782 78.5344Z" fill="#263238"/>
<path d="M127.691 84.5144C126.791 83.2474 126.173 81.8013 125.881 80.2744C125.555 78.7239 125.527 77.1251 125.801 75.5644C126.084 73.9767 126.746 72.4808 127.731 71.2044C128.685 69.9495 129.96 68.9753 131.421 68.3844C130.521 69.5296 129.728 70.7547 129.051 72.0444C128.433 73.2701 128.002 74.5812 127.771 75.9344C127.531 77.3111 127.417 78.7069 127.431 80.1044C127.451 81.5344 127.541 82.9844 127.691 84.5144Z" fill="#263238"/>
<path d="M126.942 84.6144C125.803 83.5571 124.903 82.2682 124.302 80.8344C123.66 79.3861 123.304 77.8277 123.252 76.2444C123.2 74.6295 123.544 73.0264 124.252 71.5744C124.917 70.1524 125.954 68.9363 127.252 68.0544C126.607 69.3483 126.088 70.7012 125.702 72.0944C125.354 73.4217 125.202 74.793 125.252 76.1644C125.297 77.5614 125.474 78.9511 125.782 80.3144C126.092 81.7444 126.492 83.1444 126.942 84.6144Z" fill="#263238"/>
<path opacity="0.5" d="M166.712 225.464C157.712 231.354 145.582 231.064 136.712 232.344C127.842 233.624 114.902 240.024 101.482 242.754C101.282 231.944 102.282 208.754 112.482 186.754C125.702 158.254 144.482 149.464 150.592 172.204C155.302 189.784 155.832 205.564 166.712 225.464Z" fill="white"/>
<path d="M155.232 119.004C152.44 120.252 149.478 121.074 146.442 121.444C143.392 121.845 140.301 121.804 137.262 121.324C135.742 121.091 134.239 120.757 132.762 120.324C131.302 119.844 129.882 119.252 128.512 118.554C127.826 118.228 127.158 117.864 126.512 117.464L124.592 116.204C123.958 115.776 123.356 115.302 122.792 114.784C122.212 114.294 121.642 113.784 121.072 113.294C123.492 115.093 126.101 116.622 128.852 117.854C130.221 118.464 131.627 118.985 133.062 119.414C134.497 119.822 135.957 120.136 137.432 120.354C140.392 120.821 143.396 120.938 146.382 120.704L148.622 120.464C149.362 120.344 150.112 120.244 150.852 120.094C152.334 119.824 153.797 119.46 155.232 119.004Z" fill="#263238"/>
<path d="M193.012 68.4144C193.012 68.4144 183.112 69.0444 183.112 66.0544C183.112 64.6744 190.672 60.0544 193.402 60.0544C196.132 60.0544 193.012 68.4144 193.012 68.4144Z" fill="#263238"/>
<path d="M146.851 107.374C150.806 107.374 154.011 104.169 154.011 100.214C154.011 96.26 150.806 93.0544 146.851 93.0544C142.897 93.0544 139.691 96.26 139.691 100.214C139.691 104.169 142.897 107.374 146.851 107.374Z" fill="#FF9BBC"/>
<path d="M208.862 230.624C208.862 229.224 211.462 227.464 212.182 227.024C212.902 226.584 216.182 226.364 216.402 225.804C216.622 225.244 219.782 224.584 220.942 224.644C222.102 224.704 223.662 226.744 223.882 228.354C223.991 229.134 223.815 229.927 223.387 230.588C222.959 231.249 222.308 231.734 221.552 231.954C220.112 232.234 217.482 233.564 216.382 233.674C215.282 233.784 208.862 232.184 208.862 230.624Z" fill="#E8E8E8"/>
<path opacity="0.3" d="M208.862 230.624C208.862 229.224 211.462 227.464 212.182 227.024C212.902 226.584 216.182 226.364 216.402 225.804C216.622 225.244 219.782 224.584 220.942 224.644C222.102 224.704 223.662 226.744 223.882 228.354C223.991 229.134 223.815 229.927 223.387 230.588C222.959 231.249 222.308 231.734 221.552 231.954C220.112 232.234 217.482 233.564 216.382 233.674C215.282 233.784 208.862 232.184 208.862 230.624Z" fill="#FFC800"/>
<path d="M197.622 225.834C196.902 224.834 198.532 224.064 199.342 222.894C200.152 221.724 202.872 222.194 203.392 222.564C204.07 223.512 204.377 224.676 204.252 225.834C203.49 226.919 202.335 227.665 201.032 227.914C200.122 227.914 198.072 226.434 197.622 225.834Z" fill="#E8E8E8"/>
<path opacity="0.3" d="M197.622 225.834C196.902 224.834 198.532 224.064 199.342 222.894C200.152 221.724 202.872 222.194 203.392 222.564C204.07 223.512 204.377 224.676 204.252 225.834C203.49 226.919 202.335 227.665 201.032 227.914C200.122 227.914 198.072 226.434 197.622 225.834Z" fill="#FFC800"/>
<path d="M210.402 223.894C210.592 222.304 213.692 222.764 214.182 223.624C214.672 224.484 212.882 226.164 212.072 225.464C211.262 224.764 210.302 224.484 210.402 223.894Z" fill="#E8E8E8"/>
<path opacity="0.3" d="M210.402 223.894C210.592 222.304 213.692 222.764 214.182 223.624C214.672 224.484 212.882 226.164 212.072 225.464C211.262 224.764 210.302 224.484 210.402 223.894Z" fill="#FFC800"/>
<path d="M199.302 233.204C199.802 232.584 201.302 232.444 201.532 232.804C201.762 233.164 202.252 233.884 201.892 234.174C201.532 234.464 200.522 235.114 200.062 234.754C199.602 234.394 199.062 233.534 199.302 233.204Z" fill="#E8E8E8"/>
<path opacity="0.3" d="M199.302 233.204C199.802 232.584 201.302 232.444 201.532 232.804C201.762 233.164 202.252 233.884 201.892 234.174C201.532 234.464 200.522 235.114 200.062 234.754C199.602 234.394 199.062 233.534 199.302 233.204Z" fill="#FFC800"/>
<path d="M189.152 228.324C189.442 227.324 190.882 226.664 191.802 226.554C192.722 226.444 194.432 227.204 194.332 227.854C194.232 228.504 192.932 229.074 192.712 229.544C192.492 230.014 191.812 231.024 191.132 230.754C190.452 230.484 188.822 229.434 189.152 228.324Z" fill="#E8E8E8"/>
<path opacity="0.3" d="M189.152 228.324C189.442 227.324 190.882 226.664 191.802 226.554C192.722 226.444 194.432 227.204 194.332 227.854C194.232 228.504 192.932 229.074 192.712 229.544C192.492 230.014 191.812 231.024 191.132 230.754C190.452 230.484 188.822 229.434 189.152 228.324Z" fill="#FFC800"/>
</svg>
