<svg aria-hidden="true" style="position:absolute;width:0;height:0" xmlns="http://www.w3.org/2000/svg" overflow="hidden">
  <defs>
  <symbol id="logo" viewBox="0 0 138 32">
<path d="M4.042 30.316v-15.926h-3.88v-4.568h5.619l-1.738 1.576v-2.951c0-2.668 0.687-4.675 2.061-6.023 1.401-1.347 3.49-2.021 6.265-2.021 0.62 0 1.28 0.040 1.981 0.121 0.728 0.081 1.361 0.243 1.9 0.485v4.689c-0.377-0.135-0.808-0.229-1.293-0.283-0.485-0.081-0.957-0.121-1.415-0.121-0.62 0-1.199 0.108-1.738 0.323-0.512 0.216-0.93 0.579-1.253 1.091-0.296 0.485-0.445 1.145-0.445 1.981v2.142l-0.849-1.011h6.023v4.568h-5.133v15.926h-6.104zM26.517 30.76c-2.183 0-4.083-0.431-5.699-1.293-1.59-0.889-2.829-2.129-3.719-3.719-0.862-1.59-1.294-3.49-1.294-5.699 0-2.183 0.431-4.069 1.294-5.659 0.889-1.59 2.129-2.816 3.719-3.678 1.617-0.862 3.517-1.293 5.699-1.293s4.083 0.431 5.699 1.293c1.617 0.862 2.856 2.088 3.719 3.678 0.889 1.59 1.334 3.476 1.334 5.659 0 2.21-0.445 4.109-1.334 5.699-0.862 1.59-2.102 2.829-3.719 3.719-1.617 0.862-3.517 1.293-5.699 1.293zM26.517 26.152c1.401 0 2.506-0.499 3.315-1.496 0.835-0.997 1.253-2.533 1.253-4.608s-0.418-3.597-1.253-4.568c-0.808-0.97-1.913-1.455-3.315-1.455s-2.52 0.485-3.355 1.455c-0.808 0.97-1.213 2.493-1.213 4.568s0.404 3.611 1.213 4.608c0.835 0.997 1.954 1.496 3.355 1.496zM50.103 30.76c-2.183 0-4.083-0.431-5.699-1.293-1.59-0.889-2.829-2.129-3.719-3.719-0.862-1.59-1.293-3.49-1.293-5.699 0-2.183 0.431-4.069 1.293-5.659 0.889-1.59 2.129-2.816 3.719-3.678 1.617-0.862 3.517-1.293 5.699-1.293s4.083 0.431 5.699 1.293c1.617 0.862 2.856 2.088 3.719 3.678 0.889 1.59 1.334 3.476 1.334 5.659 0 2.21-0.445 4.109-1.334 5.699-0.862 1.59-2.102 2.829-3.719 3.719-1.617 0.862-3.517 1.293-5.699 1.293zM50.103 26.152c1.401 0 2.506-0.499 3.315-1.496 0.835-0.997 1.253-2.533 1.253-4.608s-0.418-3.597-1.253-4.568c-0.808-0.97-1.913-1.455-3.315-1.455s-2.52 0.485-3.355 1.455c-0.808 0.97-1.213 2.493-1.213 4.568s0.404 3.611 1.213 4.608c0.835 0.997 1.954 1.496 3.355 1.496zM72.032 30.76c-1.779 0-3.355-0.431-4.729-1.293-1.347-0.862-2.412-2.088-3.193-3.678-0.755-1.59-1.132-3.503-1.132-5.74 0-2.21 0.377-4.109 1.132-5.699s1.819-2.803 3.193-3.638c1.374-0.862 2.951-1.293 4.729-1.293 1.617 0 3.059 0.391 4.325 1.172 1.293 0.755 2.156 1.779 2.587 3.072h-0.525v-13.096h6.104v29.75h-6.023v-4.002h0.525c-0.431 1.347-1.293 2.425-2.587 3.234s-2.762 1.213-4.406 1.213zM73.851 26.152c1.401 0 2.533-0.499 3.395-1.496s1.293-2.533 1.293-4.608c0-2.075-0.431-3.597-1.293-4.568s-1.994-1.455-3.395-1.455c-1.401 0-2.547 0.485-3.436 1.455-0.862 0.97-1.293 2.493-1.293 4.568s0.431 3.611 1.293 4.608c0.889 0.997 2.035 1.496 3.436 1.496zM88.72 30.316v-20.493h6.104v20.493h-6.104zM88.477 6.467v-5.699h6.548v5.699h-6.548zM109.311 30.76c-3.557 0-6.333-0.957-8.327-2.87s-2.991-4.514-2.991-7.801c0-2.129 0.418-3.988 1.253-5.578 0.862-1.59 2.048-2.829 3.557-3.719 1.536-0.916 3.328-1.374 5.376-1.374 2.021 0 3.705 0.431 5.053 1.293 1.374 0.862 2.398 2.075 3.072 3.638 0.701 1.536 1.051 3.328 1.051 5.376v1.415h-14.349v-3.032h9.903l-0.687 0.566c0-1.698-0.35-2.978-1.051-3.84-0.674-0.889-1.657-1.334-2.951-1.334-1.428 0-2.533 0.525-3.315 1.576-0.755 1.051-1.132 2.56-1.132 4.527v0.647c0 1.994 0.485 3.476 1.455 4.446 0.997 0.97 2.425 1.455 4.285 1.455 1.105 0 2.142-0.135 3.112-0.404 0.997-0.296 1.94-0.755 2.829-1.374l1.698 4.042c-1.024 0.755-2.21 1.334-3.557 1.738-1.32 0.404-2.749 0.606-4.285 0.606zM127.977 30.76c-1.832 0-3.503-0.202-5.012-0.606s-2.789-0.97-3.84-1.698l1.576-4.042c1.051 0.647 2.21 1.159 3.476 1.536 1.293 0.377 2.573 0.566 3.84 0.566 1.186 0 2.061-0.189 2.627-0.566s0.849-0.889 0.849-1.536c0-0.539-0.189-0.957-0.566-1.253-0.35-0.296-0.903-0.512-1.657-0.647l-4.163-0.768c-1.752-0.35-3.085-0.997-4.002-1.94s-1.374-2.169-1.374-3.678c0-1.32 0.35-2.479 1.051-3.476 0.728-1.024 1.765-1.819 3.112-2.385s2.924-0.849 4.729-0.849c1.536 0 2.991 0.189 4.365 0.566s2.547 0.957 3.517 1.738l-1.657 3.921c-0.835-0.62-1.805-1.118-2.91-1.496-1.078-0.377-2.115-0.566-3.112-0.566-1.293 0-2.223 0.216-2.789 0.647-0.566 0.404-0.849 0.93-0.849 1.576 0 0.485 0.162 0.889 0.485 1.213 0.35 0.323 0.876 0.566 1.576 0.728l4.204 0.768c1.805 0.323 3.18 0.93 4.123 1.819s1.415 2.115 1.415 3.678c0 1.428-0.377 2.641-1.132 3.638s-1.819 1.765-3.193 2.304c-1.347 0.539-2.91 0.808-4.689 0.808z"></path>
</symbol>
    <symbol id="instagram" viewBox="0 0 32 32">
      <path d="M28.718 10.756a9.264 9.264 0 0 0-.596-3.145 6.547 6.547 0 0 0-3.743-3.737 9.42 9.42 0 0 0-3.108-.596c-1.368-.061-1.801-.078-5.273-.078s-3.916 0-5.274.078a9.418 9.418 0 0 0-3.106.596 6.541 6.541 0 0 0-3.743 3.737 9.288 9.288 0 0 0-.596 3.101c-.061 1.367-.08 1.8-.08 5.265s0 3.909.08 5.265a9.335 9.335 0 0 0 .596 3.104 6.55 6.55 0 0 0 3.744 3.736c.989.386 2.04.604 3.106.639 1.369.061 1.803.08 5.274.08s3.916 0 5.274-.08a9.362 9.362 0 0 0 3.108-.595 6.555 6.555 0 0 0 3.743-3.737 9.35 9.35 0 0 0 .596-3.104c.061-1.365.08-1.798.08-5.265-.003-3.466-.003-3.906-.082-5.264zM15.99 22.531c-3.631 0-6.572-2.936-6.572-6.561s2.941-6.561 6.572-6.561c3.628 0 6.572 2.936 6.572 6.561s-2.944 6.561-6.572 6.561zm6.834-11.835a1.53 1.53 0 1 1 0-3.06 1.53 1.53 0 1 1 0 3.06z"/>
      <path d="M15.992 19.976a4.004 4.004 0 1 0 0-8.009 4.004 4.004 0 0 0 0 8.009z"/>
    </symbol>
    <symbol id="youtube" viewBox="0 0 32 32">
      <path d="M31.68 9.507s-.32-2.311-1.28-3.302c-1.173-1.321-2.56-1.321-3.2-1.431-4.48-.33-11.2-.33-11.2-.33s-6.72 0-11.2.33c-.64.11-2.027.11-3.2 1.431C.64 7.195.32 9.507.32 9.507S0 12.148 0 14.79v2.421c0 2.641.32 5.393.32 5.393s.32 2.311 1.28 3.302c1.173 1.321 2.773 1.321 3.52 1.431 2.56.11 10.88.22 10.88.22s6.72 0 11.2-.33c.64-.11 2.027-.11 3.2-1.431.96-.99 1.28-3.302 1.28-3.302s.32-2.641.32-5.283V14.79c0-2.641-.32-5.283-.32-5.283zM12.693 20.292v-9.244l8.64 4.622-8.64 4.622z"/>
    </symbol>
    <symbol id="facebook" viewBox="0 0 32 32">
      <path d="M20.693 1.92h1.28v4.8h-1.6c-.64 0-1.28 0-1.6.32-.32.32-.32.64-.32 1.387v1.707h3.52v4.053h-3.52v17.6h-5.44V14.08h-2.88v-4.053h2.88V8.64c0-2.347.32-4.053.96-4.8.96-1.387 2.88-2.027 5.76-2.027.32.107.64.107.96.107z"/>
    </symbol>
    <symbol id="burger" viewBox="0 0 32 32">
      <path fill="none" stroke-linejoin="round" stroke-linecap="round" stroke-width="2.286" d="M28 13.333H4M28 8H4M28 18.667H4M28 24H4"/>
    </symbol>
    <symbol id="up" viewBox="0 0 32 32">
      <path stroke-linejoin="round" stroke-linecap="round" stroke-width="3.2" d="M8 20l8-8 8 8"/>
    </symbol>
    <symbol id="down" viewBox="0 0 32 32">
      <path stroke-linejoin="round" stroke-linecap="round" stroke-width="3.2" d="M8 12l8 8 8-8"/>
    </symbol>
    <symbol id="dot" viewBox="0 0 32 32">
      <path fill="var(--color2, #e8e8e8)" d="M32 16c0 8.837-7.163 16-16 16S0 24.837 0 16 7.163 0 16 0s16 7.163 16 16z"/>
    </symbol>
    <symbol id="trash" viewBox="0 0 32 32">
      <path stroke-linejoin="round" stroke-linecap="round" stroke-width="2.667" d="M12 4h8M4 8h24m-2.667 0l-.935 14.026c-.14 2.104-.21 3.156-.665 3.954a4.007 4.007 0 0 1-1.731 1.62c-.826.4-1.881.4-3.99.4h-4.025c-2.109 0-3.163 0-3.99-.4a4.001 4.001 0 0 1-1.731-1.62c-.455-.798-.525-1.85-.665-3.954L6.666 8"/>
    </symbol>
    <symbol id="trash-black" viewBox="0 0 32 32">
      <path d="M16 0c8.837 0 16 7.163 16 16s-7.163 16-16 16S0 24.837 0 16 7.163 0 16 0z"/>
      <path fill="none" stroke="var(--color1, #fff)" stroke-linejoin="round" stroke-linecap="round" stroke-width="1.143" d="M14.286 10.857h3.429M10.857 12.571h10.286m-1.143 0l-.401 6.011c-.06.902-.09 1.353-.285 1.695-.172.301-.43.543-.742.694-.354.172-.806.172-1.71.172h-1.725c-.904 0-1.356 0-1.71-.172a1.715 1.715 0 0 1-.742-.694c-.195-.342-.225-.793-.285-1.695l-.401-6.011"/>
    </symbol>
    <symbol id="trash-mob" viewBox="0 0 32 32">
      <path fill="none" stroke="var(--color2, #e8e8e8)" stroke-width=".889" d="M16 .444C24.591.444 31.556 7.408 31.556 16S24.592 31.556 16 31.556C7.409 31.556.444 24.592.444 16S7.408.444 16 .444z"/>
      <path fill="none" stroke="var(--color3, #1a1a1a)" stroke-linejoin="round" stroke-linecap="round" stroke-width="1.156" d="M14.222 10.667h3.556M10.667 12.444h10.667m-1.186 0l-.416 6.234c-.062.935-.093 1.403-.295 1.757a1.783 1.783 0 0 1-.769.72c-.367.178-.836.178-1.773.178h-1.789c-.937 0-1.406 0-1.773-.178a1.777 1.777 0 0 1-.769-.72c-.202-.355-.233-.822-.295-1.757l-.416-6.234"/>
    </symbol>
    <symbol id="trash-default" viewBox="0 0 32 32">
      <path fill="none" stroke="var(--color2, #e8e8e8)" stroke-width=".762" d="M16 .381C24.626.381 31.619 7.374 31.619 16S24.626 31.619 16 31.619.381 24.626.381 16 7.374.381 16 .381z"/>
      <path fill="none" stroke="var(--color3, #1a1a1a)" stroke-linejoin="round" stroke-linecap="round" stroke-width="1.143" d="M14.286 10.857h3.429M10.857 12.571h10.286m-1.143 0l-.401 6.011c-.06.902-.09 1.353-.285 1.695-.172.301-.43.543-.742.694-.354.172-.806.172-1.71.172h-1.725c-.904 0-1.356 0-1.71-.172a1.715 1.715 0 0 1-.742-.694c-.195-.342-.225-.793-.285-1.695l-.401-6.011"/>
    </symbol>
    <symbol id="arrow-up-right" viewBox="0 0 32 32">
      <path stroke-linejoin="round" stroke-linecap="round" stroke-width="2.6" d="M9.334 22.666L22.667 9.333M9.334 9.333h13.333v13.333"/>
    </symbol>
    <symbol id="arrow-up-right-default" viewBox="0 0 32 32">
      <path fill="none" stroke="var(--color2, #e8e8e8)" stroke-width=".762" d="M16 .381C24.626.381 31.619 7.374 31.619 16S24.626 31.619 16 31.619.381 24.626.381 16 7.374.381 16 .381z"/>
      <path fill="none" stroke="var(--color4, #050505)" stroke-linejoin="round" stroke-linecap="round" stroke-width="1.143" d="M13.143 18.857l5.714-5.714M13.143 13.143h5.714v5.714"/>
    </symbol>
    <symbol id="arrow-up-right-hover" viewBox="0 0 32 32">
      <path d="M16 0c8.837 0 16 7.163 16 16s-7.163 16-16 16S0 24.837 0 16 7.163 0 16 0z"/>
      <path fill="none" stroke="var(--color1, #fff)" stroke-linejoin="round" stroke-linecap="round" stroke-width="1.143" d="M13.143 18.857l5.714-5.714M13.143 13.143h5.714v5.714"/>
    </symbol>
    <symbol id="heart-1" viewBox="0 0 32 32">
      <path stroke-linejoin="round" stroke-linecap="round" stroke-width="2.667" d="M27.786 6.146a7.345 7.345 0 0 0-5.187-2.15 7.33 7.33 0 0 0-5.187 2.15l-1.413 1.413-1.413-1.413a7.333 7.333 0 0 0-10.374 0 7.333 7.333 0 0 0 0 10.374l11.787 11.787L27.786 16.52a7.345 7.345 0 0 0 2.15-5.187 7.33 7.33 0 0 0-2.15-5.187z"/>
    </symbol>
    <symbol id="heart" viewBox="0 0 32 32">
      <path stroke-linejoin="round" stroke-linecap="round" stroke-width="2.667" d="M27.786 6.146a7.345 7.345 0 0 0-5.187-2.15 7.33 7.33 0 0 0-5.187 2.15l-1.413 1.413-1.413-1.413a7.333 7.333 0 0 0-10.374 0 7.333 7.333 0 0 0 0 10.374l11.787 11.787L27.786 16.52a7.345 7.345 0 0 0 2.15-5.187 7.33 7.33 0 0 0-2.15-5.187z"/>
    </symbol>
    <symbol id="heart-mob" viewBox="0 0 32 32">
      <path stroke-width=".889" d="M16 .444C24.591.444 31.556 7.408 31.556 16S24.592 31.556 16 31.556C7.409 31.556.444 24.592.444 16S7.408.444 16 .444z"/>
      <path stroke-linejoin="round" stroke-linecap="round" stroke-width="1.156" d="M21.238 11.621a3.259 3.259 0 0 0-4.612 0l-.628.628-.628-.628a3.262 3.262 0 0 0-4.61 0 3.256 3.256 0 0 0 0 4.61l5.239 5.238 5.239-5.239a3.259 3.259 0 0 0 0-4.611z"/>
    </symbol>
    <symbol id="heart-default" viewBox="0 0 32 32">
      <path stroke-width=".762" d="M16 .381C24.626.381 31.619 7.374 31.619 16S24.626 31.619 16 31.619.381 24.626.381 16 7.374.381 16 .381z"/>
      <path stroke-linejoin="round" stroke-linecap="round" stroke-width="1.143" d="M21.051 11.777a3.14 3.14 0 0 0-3.426-.682 3.15 3.15 0 0 0-1.02.682l-.606.606-.606-.606a3.143 3.143 0 1 0-4.446 4.446l5.051 5.051 5.051-5.051a3.14 3.14 0 0 0 .682-3.426 3.15 3.15 0 0 0-.682-1.02z"/>
    </symbol>
    <symbol id="check-empty" viewBox="0 0 32 32">
      <path stroke-width="1.6" d="M11.2 1.6h9.6a9.6 9.6 0 0 1 9.6 9.6v9.6a9.6 9.6 0 0 1-9.6 9.6h-9.6a9.6 9.6 0 0 1-9.6-9.6v-9.6a9.6 9.6 0 0 1 9.6-9.6z"/>
    </symbol>
    <symbol id="check-active" viewBox="0 0 32 32">
      <path d="M10.667 0h10.667c5.891 0 10.667 4.776 10.667 10.667v10.667c0 5.891-4.776 10.667-10.667 10.667H10.667C4.776 32.001 0 27.225 0 21.334V10.667C0 4.776 4.776 0 10.667 0z"/>
      <path fill="none" stroke="var(--color1, #fff)" stroke-width="3.574" d="M8.889 17.778l5.333 3.556L24 10.667"/>
    </symbol>
    <symbol id="eye" viewBox="0 0 32 32">
      <path stroke-linejoin="round" stroke-linecap="round" stroke-width="2.88" d="M1.333 16S6.666 5.333 16 5.333 30.667 16 30.667 16 25.334 26.667 16 26.667C6.667 26.667 1.333 16 1.333 16z"/>
      <path stroke-linejoin="round" stroke-linecap="round" stroke-width="2.88" d="M16 20a4 4 0 1 0 0-8 4 4 0 0 0 0 8z"/>
    </symbol>
    <symbol id="eye-off" viewBox="0 0 32 32">
      <path stroke-linejoin="round" stroke-linecap="round" stroke-width="2.88" d="M23.92 23.92A13.43 13.43 0 0 1 16 26.667C6.667 26.667 1.333 16 1.333 16A24.605 24.605 0 0 1 8.08 8.08m5.12-2.426a12.161 12.161 0 0 1 2.8-.32c9.333 0 14.667 10.667 14.667 10.667a24.646 24.646 0 0 1-2.88 4.253m-8.961-1.427a4.01 4.01 0 0 1-2.855 1.273 3.996 3.996 0 0 1-3.779-2.501 3.995 3.995 0 0 1 .983-4.424M1.333 1.334l29.333 29.333"/>
    </symbol>
    <symbol id="close" viewBox="0 0 32 32">
      <path stroke-linejoin="round" stroke-linecap="round" stroke-width="2.667" d="M24 8L8 24M8 8l16 16"/>
    </symbol>
    <symbol id="quote" viewBox="0 0 39 32">
      <path d="M0 32V21.294c0-4 .704-7.686 2.113-11.059S5.909 3.451 9.275 0l6.105 4.824c-1.957 1.961-3.444 3.804-4.462 5.529s-1.683 3.49-1.996 5.294h7.514V32H-.002zm22.896 0V21.294c0-4 .704-7.686 2.113-11.059S28.805 3.451 32.171 0l6.105 4.824c-1.957 1.961-3.444 3.804-4.462 5.529s-1.683 3.49-1.996 5.294h7.514V32H22.894z"/>
    </symbol>
    <symbol id="icon-x" viewBox="0 0 32 32">
      <path stroke-linejoin="round" stroke-linecap="round" stroke-miterlimit="4" stroke-width="2.6667" d="M24 8l-16 16"></path>
      <path stroke-linejoin="round" stroke-linecap="round" stroke-miterlimit="4" stroke-width="2.6667" d="M8 8l16 16"></path>
    </symbol>
    <symbol id="camera" viewBox="0 0 65 64" >
      <path stroke="#BFBEBE" stroke-linecap="round" stroke-linejoin="round" d="M56.881 22.8571V13.6959C56.8811 12.0825 56.2414 10.5349 55.1023 9.39238C53.9631 8.24982 52.4175 7.60551 50.8041 7.60067L41.643 7.57324M56.881 41.1428V50.2856C56.881 51.9022 56.2389 53.4525 55.0958 54.5956C53.9527 55.7387 52.4024 56.3809 50.7858 56.3809H41.643M23.3572 7.57324L14.1961 7.60372C12.5827 7.60856 11.0371 8.25287 9.89792 9.39543C8.7588 10.538 8.11913 12.0856 8.11914 13.699V22.8571M23.3572 56.3809H14.2144C12.5978 56.3809 11.0475 55.7387 9.90439 54.5956C8.76132 53.4525 8.11914 51.9022 8.11914 50.2856V41.1428" />
      <path fill="#BFBEBE" d="M32.5 37.5C33.75 37.5 34.8127 37.0627 35.688 36.188C36.5627 35.3127 37 34.25 37 33C37 31.75 36.5627 30.6873 35.688 29.812C34.8127 28.9373 33.75 28.5 32.5 28.5C31.25 28.5 30.1873 28.9373 29.312 29.812C28.4373 30.6873 28 31.75 28 33C28 34.25 28.4373 35.3127 29.312 36.188C30.1873 37.0627 31.25 37.5 32.5 37.5ZM24.5 41C23.95 41 23.4793 40.8043 23.088 40.413C22.696 40.021 22.5 39.55 22.5 39V27C22.5 26.45 22.696 25.9793 23.088 25.588C23.4793 25.196 23.95 25 24.5 25H27.65L29.5 23H35.5L37.35 25H40.5C41.05 25 41.521 25.196 41.913 25.588C42.3043 25.9793 42.5 26.45 42.5 27V39C42.5 39.55 42.3043 40.021 41.913 40.413C41.521 40.8043 41.05 41 40.5 41H24.5Z"/>
    </symbol>
    <symbol id="plus" viewBox="0 0 16 16">
      <path d="M8 3.33337V12.6667" stroke-width="1.5" stroke-linecap="round" stroke-linejoin="round"/>
      <path d="M3.33398 8H12.6673" stroke-width="1.5" stroke-linecap="round" stroke-linejoin="round"/>
    </symbol>
    <symbol id="minus" viewBox="0 0 16 16">
      <path d="M3.33398 8H12.6673"  stroke-width="1.5" stroke-linecap="round" stroke-linejoin="round"/>
    </symbol>
    <symbol id="icon-back" viewBox="0 0 32 32">
      <path d="M12.586 27.414l-10-10c-0.781-0.781-0.781-2.047 0-2.828l10-10c0.781-0.781 2.047-0.781 2.828 0s0.781 2.047 0 2.828l-6.586 6.586h19.172c1.105 0 2 0.895 2 2s-0.895 2-2 2h-19.172l6.586 6.586c0.39 0.39 0.586 0.902 0.586 1.414s-0.195 1.024-0.586 1.414c-0.781 0.781-2.047 0.781-2.828 0z"></path>
    </symbol>
    <symbol id="icon-github" viewBox="0 0 32 32">
      <path d="M16 0c-8.835 0-16 7.164-16 16 0 7.069 4.584 13.067 10.943 15.183 0.799 0.148 1.057-0.348 1.057-0.769v-2.979c-4.451 0.968-5.377-1.888-5.377-1.888-0.728-1.849-1.777-2.341-1.777-2.341-1.452-0.993 0.111-0.972 0.111-0.972 1.607 0.112 2.452 1.649 2.452 1.649 1.427 2.445 3.743 1.739 4.656 1.329 0.143-1.033 0.557-1.74 1.016-2.139-3.553-0.407-7.289-1.779-7.289-7.908 0-1.748 0.625-3.175 1.648-4.295-0.165-0.404-0.713-2.032 0.156-4.235 0 0 1.344-0.429 4.401 1.64 1.276-0.355 2.644-0.532 4.004-0.539 1.36 0.007 2.729 0.184 4.008 0.539 3.055-2.069 4.396-1.64 4.396-1.64 0.871 2.204 0.323 3.832 0.157 4.235 1.027 1.12 1.647 2.548 1.647 4.295 0 6.145-3.743 7.499-7.305 7.895 0.573 0.496 1.097 1.469 1.097 2.963v4.391c0 0.425 0.256 0.925 1.068 0.768 6.353-2.119 10.932-8.115 10.932-15.181 0-8.836-7.164-16-16-16z"></path>
    </symbol>
    <symbol id="icon-linkedin" viewBox="0 0 32 32">
      <path d="M25.333 0h-18.667c-3.681 0-6.667 2.985-6.667 6.667v18.667c0 3.681 2.985 6.667 6.667 6.667h18.667c3.683 0 6.667-2.985 6.667-6.667v-18.667c0-3.681-2.984-6.667-6.667-6.667zM10.667 25.333h-4v-14.667h4v14.667zM8.667 8.976c-1.288 0-2.333-1.053-2.333-2.352s1.045-2.352 2.333-2.352 2.333 1.053 2.333 2.352-1.044 2.352-2.333 2.352zM26.667 25.333h-4v-7.472c0-4.491-5.333-4.151-5.333 0v7.472h-4v-14.667h4v2.353c1.861-3.448 9.333-3.703 9.333 3.301v9.012z"></path>
    </symbol>
  </defs>
</svg>
